# xmcd
# 
# Track frame offsets:
#     150
#     31400
#     55477
#     70057
#     88770
#     114410
#     130542
#     149867
#     170607
#     191927
#     212812
# 
# Disc length: 3210
# 
# Revision: 0
# Processed by: cddbd v1.5.2PL0 Copyright (c) Steve Scherf et al.
# Submitted via: fre:ac v1.0.17
# 
DISCID=ab0c880b
DTITLE=五十一 - WILDERNESS
DYEAR=1999
DGENRE=Blues
TTITLE0=荒野
TTITLE1=縁
TTITLE2=Chicken
TTITLE3=ありがとママ
TTITLE4=Midnight Train
TTITLE5=夢の露
TTITLE6=灯り
TTITLE7=ウイスキー
TTITLE8=Paradise
TTITLE9=出会い
TTITLE10=Hello Christmas
EXTD=
EXTT0=
EXTT1=
EXTT2=
EXTT3=
EXTT4=
EXTT5=
EXTT6=
EXTT7=
EXTT8=
EXTT9=
EXTT10=
PLAYORDER=
